<svg xmlns="http://www.w3.org/2000/svg" xmlns:xlink="http://www.w3.org/1999/xlink" width="500" zoomAndPan="magnify" viewBox="0 0 375 374.999991" height="500" preserveAspectRatio="xMidYMid meet" version="1.0"><defs><g/><clipPath id="b6e24deec5"><path d="M 0 37.441406 L 375 37.441406 L 375 375 L 0 375 Z M 0 37.441406 " clip-rule="nonzero"/></clipPath><clipPath id="a6452d3740"><path d="M 0 0 L 90 0 L 90 193 L 0 193 Z M 0 0 " clip-rule="nonzero"/></clipPath><clipPath id="84e70b86e0"><path d="M -121.847656 -5.453125 L 52.941406 -37.757812 L 96.015625 195.292969 L -78.773438 227.597656 Z M -121.847656 -5.453125 " clip-rule="nonzero"/></clipPath><clipPath id="a9eec1fcc0"><path d="M 53.054688 -37.78125 L -121.734375 -5.476562 L -78.660156 227.578125 L 96.128906 195.273438 Z M 53.054688 -37.78125 " clip-rule="nonzero"/></clipPath><clipPath id="c1acf82306"><path d="M 0 0 L 96 0 L 96 198 L 0 198 Z M 0 0 " clip-rule="nonzero"/></clipPath><clipPath id="0b80ecfc03"><path d="M -121.847656 -5.453125 L 52.941406 -37.757812 L 96.015625 195.292969 L -78.773438 227.597656 Z M -121.847656 -5.453125 " clip-rule="nonzero"/></clipPath><clipPath id="d4c8e1c15a"><path d="M 53.054688 -37.78125 L -121.734375 -5.476562 L -78.660156 227.578125 L 96.128906 195.273438 Z M 53.054688 -37.78125 " clip-rule="nonzero"/></clipPath><clipPath id="e287fbc4cf"><path d="M 71 0 L 258 0 L 258 136 L 71 136 Z M 71 0 " clip-rule="nonzero"/></clipPath><clipPath id="b38ae036b4"><path d="M 65.738281 -44.222656 L 225.039062 -73.667969 L 264.160156 138 L 104.859375 167.441406 Z M 65.738281 -44.222656 " clip-rule="nonzero"/></clipPath><clipPath id="ea25b9a3a1"><path d="M 224.695312 -73.601562 L 65.390625 -44.160156 L 104.511719 167.503906 L 263.816406 138.0625 Z M 224.695312 -73.601562 " clip-rule="nonzero"/></clipPath><clipPath id="395d28984b"><path d="M 66 0 L 263 0 L 263 141 L 66 141 Z M 66 0 " clip-rule="nonzero"/></clipPath><clipPath id="694fe1c5eb"><path d="M 65.738281 -44.222656 L 225.039062 -73.667969 L 264.160156 138 L 104.859375 167.441406 Z M 65.738281 -44.222656 " clip-rule="nonzero"/></clipPath><clipPath id="88f2873991"><path d="M 224.695312 -73.601562 L 65.390625 -44.160156 L 104.511719 167.503906 L 263.816406 138.0625 Z M 224.695312 -73.601562 " clip-rule="nonzero"/></clipPath><clipPath id="a0189ec298"><path d="M 255 0 L 375 0 L 375 190 L 255 190 Z M 255 0 " clip-rule="nonzero"/></clipPath><clipPath id="d5b5046990"><path d="M 248.753906 -21.359375 L 435.34375 -55.847656 L 481.28125 192.695312 L 294.691406 227.179688 Z M 248.753906 -21.359375 " clip-rule="nonzero"/></clipPath><clipPath id="e4988504c5"><path d="M 435.609375 -55.894531 L 249.019531 -21.410156 L 294.957031 227.132812 L 481.546875 192.644531 Z M 435.609375 -55.894531 " clip-rule="nonzero"/></clipPath><clipPath id="2e958ce420"><path d="M 250 0 L 375 0 L 375 196 L 250 196 Z M 250 0 " clip-rule="nonzero"/></clipPath><clipPath id="3325484000"><path d="M 248.753906 -21.359375 L 435.34375 -55.847656 L 481.28125 192.695312 L 294.691406 227.179688 Z M 248.753906 -21.359375 " clip-rule="nonzero"/></clipPath><clipPath id="6a06466715"><path d="M 435.609375 -55.894531 L 249.019531 -21.410156 L 294.957031 227.132812 L 481.546875 192.644531 Z M 435.609375 -55.894531 " clip-rule="nonzero"/></clipPath><clipPath id="532e3307f7"><path d="M 0 220 L 211 220 L 211 375 L 0 375 Z M 0 220 " clip-rule="nonzero"/></clipPath><clipPath id="92d870f423"><path d="M -64.351562 215.40625 L 163.605469 173.660156 L 219.269531 477.605469 L -8.691406 519.351562 Z M -64.351562 215.40625 " clip-rule="nonzero"/></clipPath><clipPath id="3e972d3c49"><path d="M 163.847656 173.613281 L -64.109375 215.363281 L -8.449219 519.308594 L 219.511719 477.558594 Z M 163.847656 173.613281 " clip-rule="nonzero"/></clipPath><clipPath id="1a6133ec9f"><path d="M 0 212 L 219 212 L 219 375 L 0 375 Z M 0 212 " clip-rule="nonzero"/></clipPath><clipPath id="c7aa284fa3"><path d="M -64.351562 215.40625 L 163.605469 173.660156 L 219.269531 477.605469 L -8.691406 519.351562 Z M -64.351562 215.40625 " clip-rule="nonzero"/></clipPath><clipPath id="bdd5bda875"><path d="M 163.847656 173.613281 L -64.109375 215.363281 L -8.449219 519.308594 L 219.511719 477.558594 Z M 163.847656 173.613281 " clip-rule="nonzero"/></clipPath><clipPath id="669f6abd79"><path d="M 197 219 L 375 219 L 375 375 L 197 375 Z M 197 219 " clip-rule="nonzero"/></clipPath><clipPath id="fa97560a44"><path d="M 189.527344 212.867188 L 427.5 171.757812 L 482.144531 488.070312 L 244.171875 529.183594 Z M 189.527344 212.867188 " clip-rule="nonzero"/></clipPath><clipPath id="93bbb62f6f"><path d="M 427.304688 171.789062 L 189.328125 212.902344 L 243.972656 529.214844 L 481.949219 488.105469 Z M 427.304688 171.789062 " clip-rule="nonzero"/></clipPath><clipPath id="8e4a0c91db"><path d="M 190 211 L 375 211 L 375 375 L 190 375 Z M 190 211 " clip-rule="nonzero"/></clipPath><clipPath id="12cc277f9a"><path d="M 189.527344 212.867188 L 427.5 171.757812 L 482.144531 488.070312 L 244.171875 529.183594 Z M 189.527344 212.867188 " clip-rule="nonzero"/></clipPath><clipPath id="de192f7a6c"><path d="M 427.304688 171.789062 L 189.328125 212.902344 L 243.972656 529.214844 L 481.949219 488.105469 Z M 427.304688 171.789062 " clip-rule="nonzero"/></clipPath><clipPath id="43c41f9cc0"><path d="M 349 306 L 373 306 L 373 337 L 349 337 Z M 349 306 " clip-rule="nonzero"/></clipPath><clipPath id="621f776a24"><path d="M 348.335938 309.585938 L 368.988281 305.769531 L 374.167969 333.792969 L 353.515625 337.609375 Z M 348.335938 309.585938 " clip-rule="nonzero"/></clipPath><clipPath id="93c6fe2fef"><path d="M 348.335938 309.585938 L 368.988281 305.769531 L 374.167969 333.792969 L 353.515625 337.609375 Z M 348.335938 309.585938 " clip-rule="nonzero"/></clipPath><clipPath id="6ea2e3c46e"><path d="M 349 305 L 374 305 L 374 338 L 349 338 Z M 349 305 " clip-rule="nonzero"/></clipPath><clipPath id="da87ed3e21"><path d="M 348.335938 309.585938 L 368.988281 305.769531 L 374.167969 333.792969 L 353.515625 337.609375 Z M 348.335938 309.585938 " clip-rule="nonzero"/></clipPath><clipPath id="116fa08d94"><path d="M 348.335938 309.585938 L 368.988281 305.769531 L 374.167969 333.792969 L 353.515625 337.609375 Z M 348.335938 309.585938 " clip-rule="nonzero"/></clipPath><clipPath id="44a5af30b6"><path d="M 359 279 L 375 279 L 375 369 L 359 369 Z M 359 279 " clip-rule="nonzero"/></clipPath><clipPath id="21f843242a"><path d="M 354.664062 288.152344 L 416.613281 276.703125 L 431.882812 359.304688 L 369.929688 370.753906 Z M 354.664062 288.152344 " clip-rule="nonzero"/></clipPath><clipPath id="8de515c898"><path d="M 354.664062 288.152344 L 416.613281 276.703125 L 431.882812 359.304688 L 369.929688 370.753906 Z M 354.664062 288.152344 " clip-rule="nonzero"/></clipPath><clipPath id="3334225350"><path d="M 356 277 L 375 277 L 375 371 L 356 371 Z M 356 277 " clip-rule="nonzero"/></clipPath><clipPath id="d20ac3cccb"><path d="M 354.664062 288.152344 L 416.613281 276.703125 L 431.882812 359.304688 L 369.929688 370.753906 Z M 354.664062 288.152344 " clip-rule="nonzero"/></clipPath><clipPath id="90171a3a4e"><path d="M 354.664062 288.152344 L 416.613281 276.703125 L 431.882812 359.304688 L 369.929688 370.753906 Z M 354.664062 288.152344 " clip-rule="nonzero"/></clipPath><clipPath id="a7f11e0852"><path d="M 21 46 L 354 46 L 354 346.449219 L 21 346.449219 Z M 21 46 " clip-rule="nonzero"/></clipPath><clipPath id="b9c3b4e450"><path d="M 21 29 L 354 29 L 354 329.453125 L 21 329.453125 Z M 21 29 " clip-rule="nonzero"/></clipPath></defs><rect x="-37.5" width="450" fill="#ffffff" y="-37.499999" height="449.999989" fill-opacity="1"/><rect x="-37.5" width="450" fill="#ffffff" y="-37.499999" height="449.999989" fill-opacity="1"/><rect x="-37.5" width="450" fill="#ffffff" y="-37.499999" height="449.999989" fill-opacity="1"/><path fill="#191919" d="M 54.71875 387.710938 L 516.191406 387.710938 L 446.535156 -4.167969 L -14.9375 -4.167969 Z M 54.71875 387.710938 " fill-opacity="1" fill-rule="nonzero"/><path fill="#191919" d="M 528.382812 387.710938 C 528.382812 391.195312 526.640625 392.933594 524.898438 396.417969 C 523.15625 399.902344 519.675781 401.644531 516.191406 401.644531 L 54.71875 401.644531 C 47.753906 401.644531 42.53125 396.417969 40.789062 391.195312 L -28.867188 -0.683594 C -28.867188 -4.167969 -28.867188 -7.648438 -25.386719 -11.132812 C -21.902344 -14.617188 -20.160156 -16.359375 -14.9375 -16.359375 L 446.535156 -16.359375 C 453.5 -16.359375 458.726562 -11.132812 458.726562 -5.910156 L 528.382812 385.96875 C 528.382812 387.710938 528.382812 387.710938 528.382812 387.710938 Z M 65.167969 375.519531 L 500.519531 375.519531 L 436.085938 9.765625 L 0.734375 9.765625 Z M 65.167969 375.519531 " fill-opacity="1" fill-rule="nonzero"/><path fill="#191919" d="M 12.945312 441.757812 L 474.417969 441.757812 L 404.761719 49.882812 L -56.710938 49.882812 Z M 12.945312 441.757812 " fill-opacity="1" fill-rule="nonzero"/><g clip-path="url(#b6e24deec5)"><path fill="#191919" d="M 486.609375 441.757812 C 486.609375 445.242188 484.867188 446.984375 483.125 450.464844 C 481.382812 453.949219 477.902344 455.691406 474.417969 455.691406 L 12.945312 455.691406 C 5.980469 455.691406 0.757812 450.464844 -0.984375 445.242188 L -70.640625 53.363281 C -70.640625 49.882812 -70.640625 46.398438 -67.160156 42.914062 C -63.675781 39.429688 -61.933594 37.691406 -56.710938 37.691406 L 404.761719 37.691406 C 411.726562 37.691406 416.953125 42.914062 416.953125 48.140625 L 486.609375 440.015625 C 486.609375 441.757812 486.609375 441.757812 486.609375 441.757812 Z M 23.394531 429.566406 L 458.746094 429.566406 L 394.3125 63.816406 L -41.039062 63.816406 Z M 23.394531 429.566406 " fill-opacity="1" fill-rule="nonzero"/></g><g clip-path="url(#a6452d3740)"><g clip-path="url(#84e70b86e0)"><g clip-path="url(#a9eec1fcc0)"><path fill="#b48be6" d="M 53.59375 -1.726562 L 89.261719 191.269531 L -79.789062 192.386719 L -115.460938 -0.609375 Z M 53.59375 -1.726562 " fill-opacity="1" fill-rule="nonzero"/></g></g></g><g clip-path="url(#c1acf82306)"><g clip-path="url(#0b80ecfc03)"><g clip-path="url(#d4c8e1c15a)"><path fill="#b48be6" d="M 90.207031 196.367188 C 91.660156 196.097656 92.253906 195.234375 93.574219 194.238281 C 94.894531 193.242188 95.351562 191.652344 95.082031 190.195312 L 59.410156 -2.800781 C 58.875 -5.714844 56.289062 -7.496094 53.96875 -7.824219 L -115.082031 -6.703125 C -116.535156 -6.433594 -117.992188 -6.167969 -119.175781 -4.441406 C -120.363281 -2.714844 -120.957031 -1.851562 -120.550781 0.332031 L -84.882812 193.328125 C -84.34375 196.242188 -81.757812 198.023438 -79.574219 197.621094 L 89.476562 196.503906 C 90.207031 196.367188 90.207031 196.367188 90.207031 196.367188 Z M 49.308594 3.582031 L 82.960938 185.65625 L -74.777344 186.941406 L -108.429688 4.871094 Z M 49.308594 3.582031 " fill-opacity="1" fill-rule="nonzero"/></g></g></g><g clip-path="url(#e287fbc4cf)"><g clip-path="url(#b38ae036b4)"><g clip-path="url(#ea25b9a3a1)"><path fill="#7532c8" d="M 225.160156 -40.855469 L 257.554688 134.429688 L 103.507812 135.539062 L 71.109375 -39.746094 Z M 225.160156 -40.855469 " fill-opacity="1" fill-rule="nonzero"/></g></g></g><g clip-path="url(#395d28984b)"><g clip-path="url(#694fe1c5eb)"><g clip-path="url(#88f2873991)"><path fill="#7532c8" d="M 258.410156 139.0625 C 259.738281 138.816406 260.277344 138.03125 261.480469 137.125 C 262.683594 136.21875 263.105469 134.773438 262.859375 133.449219 L 230.460938 -41.835938 C 229.972656 -44.480469 227.617188 -46.097656 225.507812 -46.390625 L 71.457031 -45.28125 C 70.132812 -45.035156 68.804688 -44.792969 67.726562 -43.222656 C 66.644531 -41.65625 66.101562 -40.871094 66.46875 -38.886719 L 98.867188 136.398438 C 99.355469 139.042969 101.710938 140.660156 103.699219 140.292969 L 257.75 139.183594 C 258.410156 139.0625 258.410156 139.0625 258.410156 139.0625 Z M 221.253906 -36.027344 L 251.816406 129.335938 L 108.078125 130.589844 L 77.515625 -34.773438 Z M 221.253906 -36.027344 " fill-opacity="1" fill-rule="nonzero"/></g></g></g><g clip-path="url(#a0189ec298)"><g clip-path="url(#d5b5046990)"><g clip-path="url(#e4988504c5)"><path fill="#a46ce8" d="M 436.175781 -17.445312 L 474.21875 188.378906 L 293.757812 189.601562 L 255.714844 -16.222656 Z M 436.175781 -17.445312 " fill-opacity="1" fill-rule="nonzero"/></g></g></g><g clip-path="url(#2e958ce420)"><g clip-path="url(#3325484000)"><g clip-path="url(#6a06466715)"><path fill="#a46ce8" d="M 475.222656 193.8125 C 476.773438 193.527344 477.40625 192.605469 478.816406 191.542969 C 480.226562 190.480469 480.714844 188.78125 480.429688 187.230469 L 442.386719 -18.59375 C 441.8125 -21.699219 439.054688 -23.601562 436.582031 -23.945312 L 256.121094 -22.722656 C 254.566406 -22.433594 253.015625 -22.148438 251.75 -20.308594 C 250.484375 -18.464844 249.851562 -17.546875 250.28125 -15.214844 L 288.320312 190.605469 C 288.894531 193.714844 291.65625 195.613281 293.984375 195.183594 L 474.445312 193.957031 C 475.222656 193.8125 475.222656 193.8125 475.222656 193.8125 Z M 431.601562 -11.78125 L 467.488281 182.390625 L 299.109375 183.792969 L 263.21875 -10.378906 Z M 431.601562 -11.78125 " fill-opacity="1" fill-rule="nonzero"/></g></g></g><g clip-path="url(#532e3307f7)"><g clip-path="url(#92d870f423)"><g clip-path="url(#3e972d3c49)"><path fill="#dcc9f4" d="M 164.472656 220.621094 L 210.566406 472.328125 L -9.84375 473.421875 L -55.9375 221.71875 Z M 164.472656 220.621094 " fill-opacity="1" fill-rule="nonzero"/></g></g></g><g clip-path="url(#1a6133ec9f)"><g clip-path="url(#c7aa284fa3)"><g clip-path="url(#bdd5bda875)"><path fill="#dcc9f4" d="M 211.785156 478.976562 C 213.679688 478.628906 214.457031 477.503906 216.179688 476.207031 C 217.902344 474.910156 218.503906 472.835938 218.15625 470.9375 L 172.058594 219.230469 C 171.363281 215.433594 167.996094 213.105469 164.976562 212.675781 L -55.433594 213.773438 C -57.332031 214.121094 -59.226562 214.46875 -60.777344 216.714844 C -62.328125 218.960938 -63.101562 220.085938 -62.582031 222.933594 L -16.484375 474.640625 C -15.789062 478.4375 -12.421875 480.765625 -9.574219 480.246094 L 210.835938 479.148438 C 211.785156 478.976562 211.785156 478.976562 211.785156 478.976562 Z M 158.875 227.539062 L 202.359375 464.996094 L -3.296875 466.335938 L -46.785156 228.878906 Z M 158.875 227.539062 " fill-opacity="1" fill-rule="nonzero"/></g></g></g><g clip-path="url(#669f6abd79)"><g clip-path="url(#fa97560a44)"><g clip-path="url(#93bbb62f6f)"><path fill="#491c80" d="M 427.4375 220.628906 L 472.6875 482.578125 L 243.023438 481.535156 L 197.769531 219.585938 Z M 427.4375 220.628906 " fill-opacity="1" fill-rule="nonzero"/></g></g></g><g clip-path="url(#8e4a0c91db)"><g clip-path="url(#12cc277f9a)"><g clip-path="url(#de192f7a6c)"><path fill="#491c80" d="M 473.882812 489.496094 C 475.867188 489.15625 476.683594 487.996094 478.496094 486.664062 C 480.304688 485.335938 480.953125 483.1875 480.613281 481.210938 L 435.359375 219.261719 C 434.675781 215.308594 431.191406 212.855469 428.050781 212.378906 L 198.382812 211.335938 C 196.402344 211.679688 194.421875 212.019531 192.785156 214.339844 C 191.144531 216.660156 190.324219 217.820312 190.835938 220.785156 L 236.089844 482.734375 C 236.773438 486.6875 240.257812 489.140625 243.226562 488.625 L 472.894531 489.667969 C 473.882812 489.496094 473.882812 489.496094 473.882812 489.496094 Z M 421.527344 227.757812 L 464.21875 474.878906 L 249.921875 474.234375 L 207.230469 227.113281 Z M 421.527344 227.757812 " fill-opacity="1" fill-rule="nonzero"/></g></g></g><g clip-path="url(#43c41f9cc0)"><g clip-path="url(#621f776a24)"><g clip-path="url(#93c6fe2fef)"><path fill="#491c80" d="M 349.8125 313.660156 L 354.101562 336.867188 L 372.792969 329.789062 L 368.503906 306.582031 Z M 349.8125 313.660156 " fill-opacity="1" fill-rule="nonzero"/></g></g></g><g clip-path="url(#6ea2e3c46e)"><g clip-path="url(#da87ed3e21)"><g clip-path="url(#116fa08d94)"><path fill="#491c80" d="M 354.214844 337.480469 C 354.042969 337.511719 353.941406 337.441406 353.753906 337.386719 C 353.566406 337.328125 353.445312 337.171875 353.414062 336.996094 L 349.125 313.785156 C 349.058594 313.4375 349.269531 313.125 349.511719 312.992188 L 368.203125 305.914062 C 368.375 305.878906 368.546875 305.847656 368.753906 305.992188 C 368.957031 306.136719 369.058594 306.207031 369.105469 306.46875 L 373.398438 329.679688 C 373.460938 330.027344 373.253906 330.339844 372.992188 330.386719 L 354.300781 337.464844 C 354.214844 337.480469 354.214844 337.480469 354.214844 337.480469 Z M 350.511719 314.074219 L 354.558594 335.96875 L 372.011719 329.390625 L 367.964844 307.496094 Z M 350.511719 314.074219 " fill-opacity="1" fill-rule="nonzero"/></g></g></g><g clip-path="url(#44a5af30b6)"><g clip-path="url(#21f843242a)"><g clip-path="url(#8de515c898)"><path fill="#491c80" d="M 359.054688 300.152344 L 371.699219 368.558594 L 427.792969 347.511719 L 415.152344 279.109375 Z M 359.054688 300.152344 " fill-opacity="1" fill-rule="nonzero"/></g></g></g><g clip-path="url(#3334225350)"><g clip-path="url(#d20ac3cccb)"><g clip-path="url(#90171a3a4e)"><path fill="#491c80" d="M 372.035156 370.363281 C 371.519531 370.460938 371.210938 370.25 370.648438 370.085938 C 370.085938 369.925781 369.730469 369.457031 369.636719 368.9375 L 356.996094 300.535156 C 356.804688 299.503906 357.433594 298.585938 358.160156 298.183594 L 414.253906 277.136719 C 414.769531 277.042969 415.285156 276.949219 415.898438 277.367188 C 416.507812 277.789062 416.8125 278 416.957031 278.773438 L 429.597656 347.179688 C 429.789062 348.210938 429.160156 349.128906 428.386719 349.273438 L 372.292969 370.316406 C 372.035156 370.363281 372.035156 370.363281 372.035156 370.363281 Z M 361.148438 301.367188 L 373.074219 365.902344 L 425.445312 346.34375 L 413.519531 281.8125 Z M 361.148438 301.367188 " fill-opacity="1" fill-rule="nonzero"/></g></g></g><g clip-path="url(#a7f11e0852)"><path fill="#191919" d="M 352.328125 120.828125 C 333.617188 24.515625 216.34375 22.90625 187.425781 112.945312 C 158.511719 22.90625 41.234375 24.515625 22.527344 120.828125 C 5.550781 208.210938 187.425781 346.074219 187.425781 346.074219 C 187.425781 346.074219 369.300781 208.210938 352.328125 120.828125 Z M 352.328125 120.828125 " fill-opacity="1" fill-rule="nonzero"/></g><g clip-path="url(#b9c3b4e450)"><path fill="#191919" d="M 352.328125 103.832031 C 333.617188 7.519531 216.34375 5.910156 187.425781 95.945312 C 158.511719 5.910156 41.234375 7.519531 22.527344 103.832031 C 5.550781 191.214844 187.425781 329.078125 187.425781 329.078125 C 187.425781 329.078125 369.300781 191.214844 352.328125 103.832031 Z M 352.328125 103.832031 " fill-opacity="1" fill-rule="nonzero"/></g><g fill="#ffffff" fill-opacity="1"><g transform="translate(87.398948, 259.901846)"><g><path d="M 16.796875 -136.6875 L 69.3125 -136.6875 L 72.96875 -43.484375 L 108.921875 -136.6875 L 151.53125 -136.6875 L 157.125 -43.484375 L 193.296875 -136.6875 L 215.890625 -136.6875 L 162.734375 0 L 114.296875 0 L 109.78125 -77.28125 L 77.484375 0 L 25.828125 0 Z M 16.796875 -136.6875 "/></g></g></g></svg>